PathFileType	4	(X/Y/Z)	/Users/itak/Documents/Research/Walk-IL/dataset/trc/00199_00008.trc
DataRate	CameraRate	NumFrames	NumMarkers	Units	OrigDataRate	OrigDataStartFrame	OrigNumFrames
100.000000	100.000000	4	53	mm	100.000000	192	514
Frame#	Time	RPSI			LPSI			L3			STRN			T10			C7			CLAV			RBAK			LBAK			LSHO			LUPA			LAEL			LAOL			LWTS			LWPS			LFRA			LIFD			LHPS			LHTS			RSHO			RUPA			RAEL			RAOL			RWTS			RWPS			RFRA			RIFD			RHTS			RHPS			RBHD			LFHD			RFHD			LBHD			LHIP			RHIP			RASI			LASI			LKNE			LTHI			LANK			LTIP			LTOE			LMT1			LMT5			LHEE			RKNE			RTHI			RANK			RTIP			RTOE			RMT1			RMT5			RHEE			
		X1	Y1	Z1	X2	Y2	Z2	X3	Y3	Z3	X4	Y4	Z4	X5	Y5	Z5	X6	Y6	Z6	X7	Y7	Z7	X8	Y8	Z8	X9	Y9	Z9	X10	Y10	Z10	X11	Y11	Z11	X12	Y12	Z12	X13	Y13	Z13	X14	Y14	Z14	X15	Y15	Z15	X16	Y16	Z16	X17	Y17	Z17	X18	Y18	Z18	X19	Y19	Z19	X20	Y20	Z20	X21	Y21	Z21	X22	Y22	Z22	X23	Y23	Z23	X24	Y24	Z24	X25	Y25	Z25	X26	Y26	Z26	X27	Y27	Z27	X28	Y28	Z28	X29	Y29	Z29	X30	Y30	Z30	X31	Y31	Z31	X32	Y32	Z32	X33	Y33	Z33	X34	Y34	Z34	X35	Y35	Z35	X36	Y36	Z36	X37	Y37	Z37	X38	Y38	Z38	X39	Y39	Z39	X40	Y40	Z40	X41	Y41	Z41	X42	Y42	Z42	X43	Y43	Z43	X44	Y44	Z44	X45	Y45	Z45	X46	Y46	Z46	X47	Y47	Z47	X48	Y48	Z48	X49	Y49	Z49	X50	Y50	Z50	X51	Y51	Z51	X52	Y52	Z52	X53	Y53	Z53	

193	1.92	-564.622802734375	1037.54736328125	-308.8161926269531	-501.5020141601562	1042.5751953125	-415.4415283203125	-537.1611938476562	1076.702026367188	-357.6279602050781	-315.0244140625	1291.63134765625	-239.7522277832031	-568.6305541992188	1231.657836914062	-381.5316772460938	-509.9555969238281	1501.77734375	-371.1479797363281	-335.0989685058594	1403.792602539062	-267.5928955078125	-618.9232788085938	1328.839111328125	-301.8506774902344	-466.6126098632812	1474.019165039062	-460.3801879882812	-363.751953125	1460.602905273438	-494.73583984375	-367.4462280273438	1327.713989257812	-574.02685546875	-371.2905883789062	1112.389038085938	-583.2952270507812	-435.9273376464844	1100.954956054688	-524.759765625	-309.7145080566406	864.7810668945312	-540.9032592773438	-379.0311889648438	860.9583129882812	-602.6619262695312	-370.3315124511719	1003.268188476562	-599.1989135742188	-339.6720581054688	681.0867309570312	-527.3268432617188	-372.5790710449219	788.4966430664062	-599.2476806640625	-308.6915283203125	784.8177490234375	-563.4443969726562	-539.5789794921875	1487.163940429688	-180.9316711425781	-591.3404541015625	1423.398681640625	-128.8257751464844	-636.8038330078125	1137.925537109375	-85.2550048828125	-589.2513427734375	1126.278930664062	-170.8099212646484	-525.2244262695312	903.0060424804688	-26.89596557617188	-613.2921752929688	894.2529907226562	-21.15328216552734	-629.1937255859375	1066.631469726562	-54.34576416015625	-519.49853515625	710.0934448242188	-40.02812576293945	-515.3103637695312	807.0941772460938	-8.159923553466797	-594.6035766601562	809.7592163085938	-8.629270553588867	-499.7579650878906	1663.62255859375	-284.9078369140625	-291.6529541015625	1719.610595703125	-300.1859741210938	-362.7187805175781	1713.31396484375	-191.7225646972656	-432.6715393066406	1677.618286132812	-403.6490173339844	-347.0175170898438	995.38427734375	-462.98486328125	-501.3375549316406	985.7792358398438	-122.2977294921875	-404.521728515625	1025.48095703125	-126.9194641113281	-274.8511657714844	1031.089599609375	-346.6387634277344	-223.1654815673828	507.645751953125	-352.117919921875	-244.0875701904297	646.0933227539062	-399.1248474121094	-257.7374267578125	32.53079223632812	-378.7761840820312	-225.515380859375	275.177978515625	-369.4579162597656	-83.72830200195312	43.46940994262695	-243.6938629150391	-149.6374816894531	44.23778533935547	-227.4378051757812	-146.1942291259766	30.75564384460449	-354.8485107421875	-336.2550048828125	36.38755416870117	-346.7384643554688	-510.2591552734375	480.7273559570312	-161.3457794189453	-467.3970336914062	750.2557373046875	-107.4785308837891	-835.0795288085938	153.3094024658203	-372.8983154296875	-554.1818237304688	367.9093627929688	-203.4916076660156	-674.7597045898438	43.41817092895508	-335.4646606445312	-686.219970703125	59.98866271972656	-390.7948303222656	-786.71142578125	65.47026824951172	-315.5606384277344	-825.744873046875	201.2880401611328	-442.4136352539062	
194	1.93	-555.137939453125	1038.089599609375	-307.2998962402344	-490.9283752441406	1043.78466796875	-413.2039794921875	-527.0717163085938	1077.691040039062	-355.8319091796875	-305.9921569824219	1292.63232421875	-235.4082183837891	-558.0449829101562	1232.77734375	-379.923583984375	-499.5765686035156	1502.896728515625	-368.6447448730469	-325.8382263183594	1404.8017578125	-263.3443603515625	-609.2487182617188	1329.836303710938	-300.6802673339844	-455.3719787597656	1475.251342773438	-457.4598693847656	-352.1432800292969	1461.908569335938	-490.7095336914062	-355.0429992675781	1329.189453125	-570.3346557617188	-359.0897827148438	1113.780639648438	-579.7740478515625	-424.47705078125	1102.478637695312	-522.1761474609375	-298.4351196289062	866.0745849609375	-536.3394775390625	-366.61083984375	862.2890625	-599.3023071289062	-357.9967041015625	1004.60498046875	-595.6542358398438	-329.051513671875	682.4324340820312	-522.85400390625	-360.4203186035156	789.7953491210938	-595.6109619140625	-297.258056640625	786.0374145507812	-558.6930541992188	-531.1990966796875	1488.123657226562	-178.8409118652344	-583.5831298828125	1424.422607421875	-127.4304275512695	-630.5408325195312	1139.359375	-83.84712219238281	-581.8515014648438	1127.30810546875	-168.7393951416016	-520.4109497070312	904.2673950195312	-23.45789909362793	-608.6124267578125	895.7633056640625	-18.91703987121582	-623.5096435546875	1068.119018554688	-52.74031066894531	-515.0191650390625	711.3189086914062	-36.08488845825195	-510.8611145019531	808.3809814453125	-4.298759460449219	-590.2697143554688	811.2800903320312	-5.894645690917969	-490.4642333984375	1664.70947265625	-282.2360534667969	-282.2624206542969	1720.753662109375	-295.695068359375	-354.2246704101562	1714.461303710938	-187.8122406005859	-422.3557739257812	1678.708618164062	-400.36572265625	-336.1629028320312	996.3973388671875	-459.259521484375	-493.8681640625	986.0706787109375	-120.248664855957	-397.0523681640625	1026.19140625	-123.9866027832031	-264.8311767578125	1031.840942382812	-342.3399658203125	-218.4728698730469	507.1014099121094	-349.6567077636719	-237.459716796875	646.0435791015625	-396.0192260742188	-257.6411743164062	32.92188262939453	-378.4408569335938	-223.2156066894531	274.6963500976562	-367.9456176757812	-83.6082763671875	42.5886116027832	-243.1209869384766	-149.6609954833984	43.48513793945312	-226.8006439208984	-146.1098480224609	31.0108470916748	-354.5474548339844	-336.119140625	36.63879013061523	-346.589599609375	-493.8548583984375	480.2482604980469	-152.034423828125	-457.0927124023438	751.1925659179688	-102.4125289916992	-820.93017578125	160.5010986328125	-369.185546875	-538.0982666015625	368.1902160644531	-194.5058746337891	-665.394287109375	45.18286895751953	-324.5098876953125	-674.2719116210938	62.58173751831055	-380.936767578125	-777.1127319335938	72.08100891113281	-309.527587890625	-808.6182861328125	207.2111663818359	-438.8360900878906	
195	1.94	-545.8912353515625	1038.582885742188	-305.8748779296875	-480.5981140136719	1044.89599609375	-411.0484313964844	-517.2312622070312	1078.625610351562	-354.1119079589844	-297.2006225585938	1293.40185546875	-230.9814300537109	-547.6412353515625	1233.911254882812	-378.3809814453125	-489.2107238769531	1504.000366210938	-366.0327758789062	-316.7340393066406	1405.597778320312	-258.9765930175781	-599.7218627929688	1330.826904296875	-299.5404663085938	-444.1365356445312	1476.45654296875	-454.4446716308594	-340.5243225097656	1463.091674804688	-486.5263977050781	-342.6326599121094	1330.53125	-566.4697265625	-346.76953125	1115.025756835938	-576.1868896484375	-412.9660949707031	1103.810668945312	-519.6318969726562	-286.7637023925781	867.3222045898438	-531.6235961914062	-353.7617492675781	863.4512329101562	-595.8005981445312	-345.4045715332031	1005.780456542969	-592.0275268554688	-317.6611938476562	683.6957397460938	-518.2902221679688	-347.666015625	790.9468383789062	-591.8482055664062	-285.2563171386719	787.2548828125	-553.8036499023438	-522.9085693359375	1488.951293945312	-176.6443176269531	-575.9130859375	1425.25439453125	-125.9730682373047	-624.3150634765625	1140.602905273438	-82.32136535644531	-574.6078491210938	1128.13818359375	-166.5898132324219	-515.4209594726562	905.46044921875	-19.97831916809082	-603.69384765625	897.10888671875	-16.55736923217773	-617.8081665039062	1069.4072265625	-51.03553771972656	-510.1474304199219	712.5062866210938	-31.90682792663574	-506.0964050292969	809.660400390625	-0.3130368590354919	-585.6234130859375	812.6911010742188	-3.000510692596436	-481.2432861328125	1665.68359375	-279.4607238769531	-272.9700927734375	1721.814575195312	-291.0842895507812	-345.8209228515625	1715.52783203125	-183.7978973388672	-412.1009216308594	1679.676147460938	-396.9616394042969	-325.5328063964844	997.2672119140625	-455.4855346679688	-486.7630310058594	986.3103637695312	-118.2583999633789	-389.9257507324219	1026.79541015625	-120.9512023925781	-255.1337432861328	1032.429077148438	-337.9254455566406	-214.0002288818359	506.5225524902344	-347.2662353515625	-231.0073699951172	645.9862670898438	-392.8560180664062	-257.54931640625	33.31205749511719	-378.1021728515625	-221.0754241943359	274.2063598632812	-366.5156555175781	-83.42925262451172	41.96560668945312	-242.7030639648438	-149.674072265625	42.83408355712891	-226.2631683349609	-146.0636444091797	31.26710891723633	-354.2726745605469	-335.9877624511719	36.90401077270508	-346.4345703125	-477.2203063964844	480.0822143554688	-142.6042327880859	-447.07177734375	752.2442016601562	-97.30354309082031	-805.3331909179688	166.8852233886719	-364.9297180175781	-521.480712890625	368.6927795410156	-185.48583984375	-653.8176879882812	47.35446548461914	-312.2889709472656	-660.5638427734375	65.21112823486328	-369.859375	-765.4749755859375	78.88040924072266	-302.2966003417969	-790.476806640625	211.738525390625	-435.0123901367188	
196	1.95	-536.8701171875	1039.077270507812	-304.5054931640625	-470.5157775878906	1045.911743164062	-408.9565124511719	-507.6403198242188	1079.519653320312	-352.4486389160156	-288.6523742675781	1293.979736328125	-226.4757995605469	-537.4273071289062	1235.066772460938	-376.8893737792969	-478.8806457519531	1505.096313476562	-363.3197021484375	-307.7994995117188	1406.219848632812	-254.4984741210938	-590.3478393554688	1331.830200195312	-298.4206237792969	-432.9213256835938	1477.646118164062	-451.3373718261719	-328.9120483398438	1464.173706054688	-482.1891784667969	-330.2104797363281	1331.760131835938	-562.4273681640625	-334.3102416992188	1116.148559570312	-572.5111694335938	-401.3970336914062	1104.974487304688	-517.1107788085938	-274.7205505371094	868.5313110351562	-526.7548217773438	-340.5272521972656	864.4771728515625	-592.1389770507812	-332.5560302734375	1006.82421875	-588.29931640625	-305.5423889160156	684.8828735351562	-513.6539306640625	-334.3560180664062	791.9793701171875	-587.9584350585938	-272.7210083007812	788.474853515625	-548.784912109375	-514.7262573242188	1489.677490234375	-174.3581085205078	-568.3442993164062	1425.936767578125	-124.4567565917969	-618.1146240234375	1141.684936523438	-80.70623016357422	-567.4857788085938	1128.811279296875	-164.3861083984375	-510.258056640625	906.6032104492188	-16.46903038024902	-598.5223999023438	898.3154296875	-14.08635902404785	-612.08056640625	1070.527954101562	-49.25397109985352	-504.9187316894531	713.6712646484375	-27.51417541503906	-501.0641479492188	810.9429931640625	3.775264978408813	-580.6929931640625	814.0132446289062	0.01723374798893929	-472.0932312011719	1666.55908203125	-276.5775451660156	-263.76953125	1722.795776367188	-286.3439025878906	-337.5056762695312	1716.5185546875	-179.6732025146484	-401.9030151367188	1680.537719726562	-393.4298706054688	-315.1339416503906	998.0082397460938	-451.6667785644531	-479.9699096679688	986.5801391601562	-116.2957305908203	-383.0842590332031	1027.358520507812	-117.8107299804688	-245.7508697509766	1032.897705078125	-333.4174499511719	-209.7078704833984	505.9236450195312	-344.9441528320312	-224.7107543945312	645.9307250976562	-389.6570129394531	-257.4588623046875	33.68405532836914	-377.7732849121094	-219.0194702148438	273.7233581542969	-365.1479797363281	-83.19564819335938	41.55485916137695	-242.4353637695312	-149.6859588623047	42.27377700805664	-225.8304595947266	-146.044189453125	31.50622177124023	-354.0289001464844	-335.868408203125	37.15449905395508	-346.2895202636719	-460.4625244140625	480.3144226074219	-133.0736694335938	-437.2759399414062	753.4843139648438	-92.15399169921875	-788.3716430664062	172.2855072021484	-360.0886535644531	-504.4470825195312	369.454345703125	-176.3758697509766	-640.1342163085938	49.82473754882812	-299.1072692871094	-645.189208984375	67.73678588867188	-357.8350524902344	-751.8363037109375	85.52861785888672	-294.0130004882812	-771.4081420898438	214.8317413330078	-430.8373107910156	
